<svg width="1024" height="1024" viewBox="0 0 1024 1024" fill="none" xmlns="http://www.w3.org/2000/svg">
  <defs>
    <linearGradient id="bg" x1="160" y1="96" x2="864" y2="928" gradientUnits="userSpaceOnUse">
      <stop stop-color="#0F172A"/>
      <stop offset="1" stop-color="#111827"/>
    </linearGradient>
    <radialGradient id="glow" cx="0" cy="0" r="1" gradientUnits="userSpaceOnUse" gradientTransform="translate(512 368) rotate(90) scale(488 488)">
      <stop stop-color="#1D4ED8" stop-opacity="0.42"/>
      <stop offset="0.55" stop-color="#2563EB" stop-opacity="0.16"/>
      <stop offset="1" stop-color="#111827" stop-opacity="0"/>
    </radialGradient>
    <linearGradient id="accent" x1="278" y1="248" x2="742" y2="776" gradientUnits="userSpaceOnUse">
      <stop stop-color="#22D3EE"/>
      <stop offset="0.52" stop-color="#3B82F6"/>
      <stop offset="1" stop-color="#8B5CF6"/>
    </linearGradient>
    <linearGradient id="line" x1="286" y1="306" x2="732" y2="718" gradientUnits="userSpaceOnUse">
      <stop stop-color="#93C5FD"/>
      <stop offset="1" stop-color="#C4B5FD"/>
    </linearGradient>
    <filter id="shadow" x="148" y="148" width="728" height="728" filterUnits="userSpaceOnUse" color-interpolation-filters="sRGB">
      <feFlood flood-opacity="0" result="BackgroundImageFix"/>
      <feColorMatrix in="SourceAlpha" type="matrix" values="0 0 0 0 0 0 0 0 0 0 0 0 0 0 0 0 0 0 127 0" result="hardAlpha"/>
      <feOffset dy="24"/>
      <feGaussianBlur stdDeviation="24"/>
      <feComposite in2="hardAlpha" operator="out"/>
      <feColorMatrix type="matrix" values="0 0 0 0 0.117647 0 0 0 0 0.278431 0 0 0 0 0.972549 0 0 0 0.22 0"/>
      <feBlend mode="normal" in2="BackgroundImageFix" result="effect1_dropShadow_0_1"/>
      <feBlend mode="normal" in="SourceGraphic" in2="effect1_dropShadow_0_1" result="shape"/>
    </filter>
  </defs>

  <rect x="64" y="64" width="896" height="896" rx="232" fill="url(#bg)"/>
  <rect x="64" y="64" width="896" height="896" rx="232" fill="url(#glow)"/>

  <g filter="url(#shadow)">
    <path d="M512 252C512 252 444 252 404 292L308 388C284 412 284 452 308 476L404 572C444 612 512 612 512 612" stroke="url(#accent)" stroke-width="64" stroke-linecap="round" stroke-linejoin="round"/>
    <path d="M512 252C512 252 580 252 620 292L716 388C740 412 740 452 716 476L620 572C580 612 512 612 512 612" stroke="url(#accent)" stroke-width="64" stroke-linecap="round" stroke-linejoin="round"/>
    <path d="M512 612V740" stroke="url(#line)" stroke-width="56" stroke-linecap="round"/>
    <path d="M512 372L362 284" stroke="url(#line)" stroke-width="40" stroke-linecap="round"/>
    <path d="M512 372L662 284" stroke="url(#line)" stroke-width="40" stroke-linecap="round"/>
    <circle cx="362" cy="284" r="52" fill="#E0F2FE" fill-opacity="0.96"/>
    <circle cx="662" cy="284" r="52" fill="#E9D5FF" fill-opacity="0.96"/>
    <circle cx="512" cy="740" r="58" fill="#DBEAFE" fill-opacity="0.98"/>
    <circle cx="512" cy="512" r="70" fill="#0F172A"/>
    <path d="M448 512H576" stroke="url(#accent)" stroke-width="44" stroke-linecap="round"/>
    <path d="M512 448V576" stroke="url(#accent)" stroke-width="44" stroke-linecap="round"/>
  </g>
</svg>
